<?xml version="1.0" encoding="UTF-8"?>
<svg width="217px" height="93px" viewBox="0 0 217 93" version="1.1" xmlns="http://www.w3.org/2000/svg" xmlns:xlink="http://www.w3.org/1999/xlink">
    <!-- Generator: sketchtool 52.1 (67048) - http://www.bohemiancoding.com/sketch -->
    <title>4C276C66-C218-49E7-9C71-31973BA05E54</title>
    <desc>Created with sketchtool.</desc>
    <g id="Page-1" stroke="none" stroke-width="1" fill="none" fill-rule="evenodd" opacity="0.601729911">
        <g id="Page-Components" transform="translate(-79.000000, -76.000000)">
            <g id="Nav-Option-2" transform="translate(77.000000, 76.000000)">
                <g id="Group" transform="translate(2.000000, 0.000000)">
                    <path d="M57.8197166,46.5213139 C57.8197166,52.5262676 52.9242365,57.3943708 46.8851798,57.3943708 C40.8464558,57.3943708 35.9513086,52.5262676 35.9513086,46.5213139 C35.9513086,40.5163601 40.8464558,35.6482569 46.8851798,35.6482569 C52.9242365,35.6482569 57.8197166,40.5163601 57.8197166,46.5213139" id="Fill-1" fill="#006AA0"></path>
                    <path d="M46.752417,65.6021338 C36.269187,65.6021338 27.7715735,57.1513794 27.7715735,46.7267744 C27.7715735,36.3034932 36.269187,27.8530698 46.752417,27.8530698 C57.2349814,27.8530698 65.7332606,36.3034932 65.7332606,46.7267744 C65.7332606,57.1513794 57.2349814,65.6021338 46.752417,65.6021338 M46.5454017,18.0155893 C30.7130551,18.0155893 17.8791026,30.7784327 17.8791026,46.5212477 C17.8791026,62.2650555 30.7130551,75.027568 46.5454017,75.027568 C62.3770827,75.027568 75.2123664,62.2650555 75.2123664,46.5212477 C75.2123664,30.7784327 62.3770827,18.0155893 46.5454017,18.0155893" id="Fill-3" fill="#006AA0"></path>
                    <g id="Group-7" transform="translate(0.000000, 0.043025)">
                        <polygon id="Clip-6" points="0 0.287969039 92.9005956 0.287969039 92.9005956 92.6690391 0 92.6690391"></polygon>
                        <path d="M46.8669744,83.143026 C26.7342336,83.143026 10.4133041,66.9130367 10.4133041,46.8928836 C10.4133041,26.8723996 26.7342336,10.6427413 46.8669744,10.6427413 C67.000048,10.6427413 83.3209775,26.8723996 83.3209775,46.8928836 C83.3209775,66.9130367 67.000048,83.143026 46.8669744,83.143026 M46.4502811,0.287969039 C20.7963548,0.287969039 -3.32822086e-05,20.968058 -3.32822086e-05,46.4788516 C-3.32822086e-05,71.9893142 20.7963548,92.6690722 46.4502811,92.6690722 C72.1042075,92.6690722 92.9005956,71.9893142 92.9005956,46.4788516 C92.9005956,20.968058 72.1042075,0.287969039 46.4502811,0.287969039" id="Fill-5" fill="#006AA0"></path>
                    </g>
                    <path d="M117.701033,58.5669651 C116.231291,58.5669651 114.880033,58.3256947 113.64726,57.8428228 C112.413821,57.3602819 111.35112,56.6755238 110.45949,55.7882178 C109.567194,54.9015737 108.871596,53.8511039 108.373361,52.6378014 C107.874794,51.4244989 107.625843,50.087748 107.625843,48.6262249 C107.625843,47.1915096 107.874794,45.8670043 108.373361,44.6537018 C108.871596,43.4403993 109.567194,42.3905915 110.45949,41.5029544 C111.35112,40.6166413 112.413821,39.9315523 113.64726,39.4483495 C114.880033,38.9658085 116.231291,38.7245381 117.701033,38.7245381 C119.642717,38.7245381 121.223622,39.0766804 122.443748,39.7809651 C123.663873,40.4855808 124.588453,41.2683032 125.218485,42.1291324 L121.951504,45.1822463 C121.032915,43.8256377 119.694637,43.146837 117.937337,43.146837 C116.415341,43.146837 115.175579,43.6495665 114.21805,44.6537018 C113.259855,45.6584989 112.78159,46.9823423 112.78159,48.6262249 C112.78159,50.2701075 113.259855,51.6005701 114.21805,52.6179438 C115.175579,53.6359794 116.415341,54.1446662 117.937337,54.1446662 C118.80334,54.1446662 119.576818,53.9623068 120.259436,53.5962641 C120.941389,53.2315452 121.505522,52.7354349 121.951504,52.1092569 L125.218485,55.1229865 C124.588453,56.0099616 123.663873,56.8059224 122.443748,57.5105381 C121.223622,58.2148228 119.642717,58.5669651 117.701033,58.5669651" id="Fill-8" fill="#006AA0"></path>
                    <polygon id="Clip-11" points="0 92.7120641 216.676497 92.7120641 216.676497 0.330960854 0 0.330960854"></polygon>
                    <polygon id="Fill-10" fill="#006AA0" points="126.516991 58.0971993 131.515313 58.0971993 131.515313 31.9926619 126.516991 31.9926619"></polygon>
                    <path d="M134.506385,58.0971993 L139.504707,58.0971993 L139.504707,39.1940391 L134.506385,39.1940391 L134.506385,58.0971993 Z M136.98591,37.1589609 C136.17216,37.1589609 135.470238,36.8720178 134.880144,36.2978007 C134.289718,35.7242456 133.994837,35.0196299 133.994837,34.1846157 C133.994837,33.3499324 134.289718,32.6519359 134.880144,32.0906263 C135.470238,31.5299786 136.17216,31.2493238 136.98591,31.2493238 C137.824954,31.2493238 138.533532,31.5299786 139.110979,32.0906263 C139.687759,32.6519359 139.976649,33.3499324 139.976649,34.1846157 C139.976649,35.0196299 139.687759,35.7242456 139.110979,36.2978007 C138.533532,36.8720178 137.824954,37.1589609 136.98591,37.1589609 Z" id="Fill-12" fill="#006AA0"></path>
                    <path d="M151.350511,58.5669651 C149.880768,58.5669651 148.529511,58.3256947 147.296738,57.8428228 C146.062966,57.3602819 145.000598,56.6755238 144.108968,55.7882178 C143.216672,54.9015737 142.521074,53.8511039 142.023172,52.6378014 C141.524271,51.4244989 141.275321,50.087748 141.275321,48.6262249 C141.275321,47.1915096 141.524271,45.8670043 142.023172,44.6537018 C142.521074,43.4403993 143.216672,42.3905915 144.108968,41.5029544 C145.000598,40.6166413 146.062966,39.9315523 147.296738,39.4483495 C148.529511,38.9658085 149.880768,38.7245381 151.350511,38.7245381 C153.292195,38.7245381 154.8731,39.0766804 156.093225,39.7809651 C157.313351,40.4855808 158.237931,41.2683032 158.867963,42.1291324 L155.600982,45.1822463 C154.682393,43.8256377 153.344115,43.146837 151.586814,43.146837 C150.064819,43.146837 148.825057,43.6495665 147.867528,44.6537018 C146.909333,45.6584989 146.431067,46.9823423 146.431067,48.6262249 C146.431067,50.2701075 146.909333,51.6005701 147.867528,52.6179438 C148.825057,53.6359794 150.064819,54.1446662 151.586814,54.1446662 C152.452817,54.1446662 153.226296,53.9623068 153.908914,53.5962641 C154.590867,53.2315452 155.155,52.7354349 155.600982,52.1092569 L158.867963,55.1229865 C158.237931,56.0099616 157.313351,56.8059224 156.093225,57.5105381 C154.8731,58.2148228 153.292195,58.5669651 151.350511,58.5669651" id="Fill-13" fill="#006AA0"></path>
                    <polygon id="Fill-14" fill="#006AA0" points="172.485379 58.0973317 167.447784 50.8178477 165.164957 53.2444527 165.164957 58.0973317 160.166635 58.0973317 160.166635 31.9927943 165.164957 31.9927943 165.164957 47.6088512 172.36756 39.1941715 178.507129 39.1941715 170.990009 47.7650648 178.743433 58.0973317"></polygon>
                    <path d="M179.33326,61.0326897 C179.542938,61.1366114 179.798545,61.2150491 180.100748,61.2673409 C180.401952,61.3193018 180.671537,61.3457786 180.907508,61.3457786 C181.563168,61.3457786 182.107998,61.2478142 182.540999,61.0522164 C182.973668,60.8566185 183.308154,60.497526 183.544458,59.9759317 L184.252703,58.3714335 L176.538886,39.1942377 L181.891663,39.1942377 L186.850379,52.3443053 L191.809429,39.1942377 L197.201479,39.1942377 L188.267536,61.1892342 C187.558958,62.9631843 186.587783,64.1635794 185.35501,64.7900883 C184.121238,65.4159352 182.691435,65.7419317 181.064933,65.7684085 C180.776044,65.7684085 180.369335,65.7419317 179.844807,65.6899708 C179.319614,65.637348 178.900258,65.5724797 178.585409,65.494042 L179.33326,61.0326897 Z" id="Fill-15" fill="#006AA0"></path>
                    <path d="M197.91019,58.5278456 C197.044187,58.5278456 196.296336,58.2147566 195.666637,57.5885786 C195.036937,56.9624007 194.722088,56.2187317 194.722088,55.3579025 C194.722088,54.4967423 195.036937,53.7530733 195.666637,53.1268954 C196.296336,52.5007174 197.044187,52.1876285 197.91019,52.1876285 C198.776194,52.1876285 199.523712,52.5007174 200.153411,53.1268954 C200.783111,53.7530733 201.09796,54.4967423 201.09796,55.3579025 C201.09796,56.2187317 200.783111,56.9624007 200.153411,57.5885786 C199.523712,58.2147566 198.776194,58.5278456 197.91019,58.5278456" id="Fill-16" fill="#006AA0"></path>
                    <polygon id="Fill-17" fill="#006AA0" points="204.184719 34.2395552 201.693546 34.2395552 201.693546 33.3707829 207.668035 33.3707829 207.668035 34.2395552 205.164547 34.2395552 205.164547 41.2023096 204.184719 41.2023096"></polygon>
                    <polygon id="Fill-18" fill="#006AA0" points="215.696669 34.6857566 213.01612 41.2020448 212.614736 41.2020448 209.946502 34.6857566 209.946502 41.2020448 208.96634 41.2020448 208.96634 33.3705181 210.371515 33.3705181 212.815761 39.3354256 215.271655 33.3705181 216.676497 33.3705181 216.676497 41.2020448 215.696669 41.2020448"></polygon>
                </g>
            </g>
        </g>
    </g>
</svg>